<svg viewBox="0 0 680 640" xmlns="http://www.w3.org/2000/svg" font-family="'SF Mono', 'Fira Code', 'Cascadia Code', monospace">
<style>
:root { --bg: #ffffff; --bg1: #f6f8fa; --border: #d0d7de; --text: #1f2328; --muted: #656d76; --tag-bg: #f6f8fa; --tag-border: #d0d7de; }
@media (prefers-color-scheme: dark) {
:root { --bg: #0d1117; --bg1: #161b22; --border: #30363d; --text: #e6edf3; --muted: #8b949e; --tag-bg: #161b22; --tag-border: #30363d; }
}
</style>

<rect width="680" height="640" fill="var(--bg)"/>

<!-- name + tagline -->
<text x="32" y="44" font-size="13" font-weight="500" fill="var(--text)" letter-spacing="1.5">dhriti vaz</text>
<text x="32" y="62" font-size="11" fill="var(--muted)" letter-spacing="0.5">full-stack · ai · vit chennai · building things that ship</text>

<line x1="32" y1="78" x2="648" y2="78" stroke="var(--border)" stroke-width="0.5"/>

<text x="32" y="98" font-size="9" fill="var(--muted)" letter-spacing="2" font-weight="500">SELECTED WORK</text>

<!-- project grid -->
<rect x="32" y="110" width="616" height="260" fill="none" stroke="var(--border)" stroke-width="0.5"/>
<line x1="340" y1="110" x2="340" y2="370" stroke="var(--border)" stroke-width="0.5"/>
<line x1="32" y1="240" x2="648" y2="240" stroke="var(--border)" stroke-width="0.5"/>

<!-- student dashboard -->
<text x="48" y="136" font-size="11.5" font-weight="500" fill="var(--text)" letter-spacing="0.3">student dashboard</text>
<text x="48" y="154" font-size="10" fill="var(--muted)">Unified interface for VTOP and LMS. Attendance</text>
<text x="48" y="168" font-size="10" fill="var(--muted)">tracker, CGPA simulator, task manager, timetable</text>
<text x="48" y="182" font-size="10" fill="var(--muted)">— all behind JWT + Google OAuth.</text>
<rect x="48" y="196" width="58" height="16" rx="2" fill="var(--tag-bg)" stroke="var(--tag-border)" stroke-width="0.5"/>
<text x="77" y="208" font-size="9" fill="var(--muted)" text-anchor="middle">react.js</text>
<rect x="112" y="196" width="66" height="16" rx="2" fill="var(--tag-bg)" stroke="var(--tag-border)" stroke-width="0.5"/>
<text x="145" y="208" font-size="9" fill="var(--muted)" text-anchor="middle">typescript</text>
<rect x="184" y="196" width="56" height="16" rx="2" fill="var(--tag-bg)" stroke="var(--tag-border)" stroke-width="0.5"/>
<text x="212" y="208" font-size="9" fill="var(--muted)" text-anchor="middle">prisma</text>
<rect x="246" y="196" width="62" height="16" rx="2" fill="var(--tag-bg)" stroke="var(--tag-border)" stroke-width="0.5"/>
<text x="277" y="208" font-size="9" fill="var(--muted)" text-anchor="middle">tailwind</text>

<!-- course & module recognition -->
<text x="356" y="136" font-size="11.5" font-weight="500" fill="var(--text)" letter-spacing="0.3">course &amp; module recognition</text>
<text x="356" y="154" font-size="10" fill="var(--muted)">ML system classifying academic courses from</text>
<text x="356" y="168" font-size="10" fill="var(--muted)">unstructured input — handles the noise and</text>
<text x="356" y="182" font-size="10" fill="var(--muted)">inconsistency in real institutional formats.</text>
<rect x="356" y="196" width="44" height="16" rx="2" fill="var(--tag-bg)" stroke="var(--tag-border)" stroke-width="0.5"/>
<text x="378" y="208" font-size="9" fill="var(--muted)" text-anchor="middle">python</text>
<rect x="406" y="196" width="46" height="16" rx="2" fill="var(--tag-bg)" stroke="var(--tag-border)" stroke-width="0.5"/>
<text x="429" y="208" font-size="9" fill="var(--muted)" text-anchor="middle">sklearn</text>
<rect x="458" y="196" width="34" height="16" rx="2" fill="var(--tag-bg)" stroke="var(--tag-border)" stroke-width="0.5"/>
<text x="475" y="208" font-size="9" fill="var(--muted)" text-anchor="middle">nlp</text>

<!-- expense tracker -->
<text x="48" y="266" font-size="11.5" font-weight="500" fill="var(--text)" letter-spacing="0.3">expense tracker</text>
<text x="48" y="284" font-size="10" fill="var(--muted)">Multi-user finance tracker. Type "lunch 80 today"</text>
<text x="48" y="298" font-size="10" fill="var(--muted)">and it just works. Smart savings planner, streak</text>
<text x="48" y="312" font-size="10" fill="var(--muted)">tracking, Chart.js dashboard. Live on Render.</text>
<rect x="48" y="326" width="42" height="16" rx="2" fill="var(--tag-bg)" stroke="var(--tag-border)" stroke-width="0.5"/>
<text x="69" y="338" font-size="9" fill="var(--muted)" text-anchor="middle">flask</text>
<rect x="96" y="326" width="66" height="16" rx="2" fill="var(--tag-bg)" stroke="var(--tag-border)" stroke-width="0.5"/>
<text x="129" y="338" font-size="9" fill="var(--muted)" text-anchor="middle">postgresql</text>
<rect x="168" y="326" width="54" height="16" rx="2" fill="var(--tag-bg)" stroke="var(--tag-border)" stroke-width="0.5"/>
<text x="195" y="338" font-size="9" fill="var(--muted)" text-anchor="middle">chart.js</text>

<!-- krypt -->
<text x="356" y="266" font-size="11.5" font-weight="500" fill="var(--text)" letter-spacing="0.3">krypt</text>
<text x="356" y="284" font-size="10" fill="var(--muted)">Zero-knowledge password manager. Argon2id key</text>
<text x="356" y="298" font-size="10" fill="var(--muted)">derivation, AES-256-GCM, TOTP 2FA, Redis rate</text>
<text x="356" y="312" font-size="10" fill="var(--muted)">limiting. 96 tests at 93% coverage.</text>
<rect x="356" y="326" width="42" height="16" rx="2" fill="var(--tag-bg)" stroke="var(--tag-border)" stroke-width="0.5"/>
<text x="377" y="338" font-size="9" fill="var(--muted)" text-anchor="middle">flask</text>
<rect x="404" y="326" width="66" height="16" rx="2" fill="var(--tag-bg)" stroke="var(--tag-border)" stroke-width="0.5"/>
<text x="437" y="338" font-size="9" fill="var(--muted)" text-anchor="middle">postgresql</text>
<rect x="476" y="326" width="44" height="16" rx="2" fill="var(--tag-bg)" stroke="var(--tag-border)" stroke-width="0.5"/>
<text x="498" y="338" font-size="9" fill="var(--muted)" text-anchor="middle">docker</text>

<line x1="32" y1="390" x2="648" y2="390" stroke="var(--border)" stroke-width="0.5"/>

<!-- experience -->
<text x="32" y="410" font-size="9" fill="var(--muted)" letter-spacing="2" font-weight="500">EXPERIENCE</text>

<text x="32" y="430" font-size="11" font-weight="500" fill="var(--text)">Ambian Strategy — Full Stack Developer</text>
<text x="636" y="430" font-size="10" fill="var(--muted)" text-anchor="end">2025</text>
<text x="32" y="444" font-size="10" fill="var(--muted)">proposalOS · scraping pipeline · AI scoring · guest preview</text>

<text x="32" y="462" font-size="11" font-weight="500" fill="var(--text)">VIT SCOPE — Summer Research Intern (SRIP)</text>
<text x="636" y="462" font-size="10" fill="var(--muted)" text-anchor="end">2025</text>
<text x="32" y="476" font-size="10" fill="var(--muted)">bio-inspired hallucination suppression · blockchain audit · TruthfulQA</text>

<text x="32" y="494" font-size="11" font-weight="500" fill="var(--text)">GeoPacific Solutions — Billing System Developer</text>
<text x="636" y="494" font-size="10" fill="var(--muted)" text-anchor="end">2025</text>
<text x="32" y="508" font-size="10" fill="var(--muted)">multi-role billing backend · JSONB schema · RESTful API</text>

<line x1="32" y1="524" x2="648" y2="524" stroke="var(--border)" stroke-width="0.5"/>

<!-- stack -->
<text x="32" y="544" font-size="9" fill="var(--muted)" letter-spacing="2" font-weight="500">STACK</text>

<!-- row 1 -->
<rect x="32" y="554" width="52" height="16" rx="2" fill="var(--tag-bg)" stroke="var(--tag-border)" stroke-width="0.5"/>
<text x="58" y="566" font-size="9" fill="var(--muted)" text-anchor="middle">python</text>
<rect x="90" y="554" width="72" height="16" rx="2" fill="var(--tag-bg)" stroke="var(--tag-border)" stroke-width="0.5"/>
<text x="126" y="566" font-size="9" fill="var(--muted)" text-anchor="middle">typescript</text>
<rect x="168" y="554" width="40" height="16" rx="2" fill="var(--tag-bg)" stroke="var(--tag-border)" stroke-width="0.5"/>
<text x="188" y="566" font-size="9" fill="var(--muted)" text-anchor="middle">swift</text>
<rect x="214" y="554" width="50" height="16" rx="2" fill="var(--tag-bg)" stroke="var(--tag-border)" stroke-width="0.5"/>
<text x="239" y="566" font-size="9" fill="var(--muted)" text-anchor="middle">next.js</text>
<rect x="270" y="554" width="42" height="16" rx="2" fill="var(--tag-bg)" stroke="var(--tag-border)" stroke-width="0.5"/>
<text x="291" y="566" font-size="9" fill="var(--muted)" text-anchor="middle">react</text>
<rect x="318" y="554" width="48" height="16" rx="2" fill="var(--tag-bg)" stroke="var(--tag-border)" stroke-width="0.5"/>
<text x="342" y="566" font-size="9" fill="var(--muted)" text-anchor="middle">fastapi</text>
<rect x="372" y="554" width="40" height="16" rx="2" fill="var(--tag-bg)" stroke="var(--tag-border)" stroke-width="0.5"/>
<text x="392" y="566" font-size="9" fill="var(--muted)" text-anchor="middle">flask</text>
<rect x="418" y="554" width="52" height="16" rx="2" fill="var(--tag-bg)" stroke="var(--tag-border)" stroke-width="0.5"/>
<text x="444" y="566" font-size="9" fill="var(--muted)" text-anchor="middle">node.js</text>
<rect x="476" y="554" width="46" height="16" rx="2" fill="var(--tag-bg)" stroke="var(--tag-border)" stroke-width="0.5"/>
<text x="499" y="566" font-size="9" fill="var(--muted)" text-anchor="middle">flutter</text>
<rect x="528" y="554" width="68" height="16" rx="2" fill="var(--tag-bg)" stroke="var(--tag-border)" stroke-width="0.5"/>
<text x="562" y="566" font-size="9" fill="var(--muted)" text-anchor="middle">postgresql</text>

<!-- row 2 -->
<rect x="32" y="576" width="58" height="16" rx="2" fill="var(--tag-bg)" stroke="var(--tag-border)" stroke-width="0.5"/>
<text x="61" y="588" font-size="9" fill="var(--muted)" text-anchor="middle">supabase</text>
<rect x="96" y="576" width="60" height="16" rx="2" fill="var(--tag-bg)" stroke="var(--tag-border)" stroke-width="0.5"/>
<text x="126" y="588" font-size="9" fill="var(--muted)" text-anchor="middle">mongodb</text>
<rect x="162" y="576" width="62" height="16" rx="2" fill="var(--tag-bg)" stroke="var(--tag-border)" stroke-width="0.5"/>
<text x="193" y="588" font-size="9" fill="var(--muted)" text-anchor="middle">playwright</text>
<rect x="230" y="576" width="46" height="16" rx="2" fill="var(--tag-bg)" stroke="var(--tag-border)" stroke-width="0.5"/>
<text x="253" y="588" font-size="9" fill="var(--muted)" text-anchor="middle">docker</text>
<rect x="282" y="576" width="52" height="16" rx="2" fill="var(--tag-bg)" stroke="var(--tag-border)" stroke-width="0.5"/>
<text x="308" y="588" font-size="9" fill="var(--muted)" text-anchor="middle">tailwind</text>
<rect x="340" y="576" width="52" height="16" rx="2" fill="var(--tag-bg)" stroke="var(--tag-border)" stroke-width="0.5"/>
<text x="366" y="588" font-size="9" fill="var(--muted)" text-anchor="middle">solidity</text>
<rect x="398" y="576" width="44" height="16" rx="2" fill="var(--tag-bg)" stroke="var(--tag-border)" stroke-width="0.5"/>
<text x="420" y="588" font-size="9" fill="var(--muted)" text-anchor="middle">prisma</text>
<rect x="448" y="576" width="38" height="16" rx="2" fill="var(--tag-bg)" stroke="var(--tag-border)" stroke-width="0.5"/>
<text x="467" y="588" font-size="9" fill="var(--muted)" text-anchor="middle">redis</text>

<line x1="32" y1="604" x2="648" y2="604" stroke="var(--border)" stroke-width="0.5"/>

<!-- links -->
<text x="340" y="626" font-size="10" fill="var(--muted)" text-anchor="middle" letter-spacing="0.3">dhriti.dev · linkedin · dhriti.vaz@gmail.com</text>

</svg>
